<svg xmlns="http://www.w3.org/2000/svg" viewBox="0 0 800 500" width="800" height="500" role="img" aria-label="City neon">
  <defs>
    <linearGradient id="neon" x1="0" y1="0" x2="0" y2="1">
      <stop offset="0%" stop-color="#2e1065"/>
      <stop offset="60%" stop-color="#7c3aed"/>
      <stop offset="100%" stop-color="#ec4899"/>
    </linearGradient>
  </defs>
  <rect width="800" height="500" fill="url(#neon)"/>
  <g fill="#1e1b4b" opacity="0.85">
    <rect x="40" y="220" width="70" height="280"/>
    <rect x="130" y="160" width="90" height="340"/>
    <rect x="240" y="260" width="60" height="240"/>
    <rect x="320" y="120" width="100" height="380"/>
    <rect x="440" y="210" width="80" height="290"/>
    <rect x="540" y="170" width="70" height="330"/>
    <rect x="630" y="240" width="120" height="260"/>
  </g>
  <g fill="#fde68a" opacity="0.9">
    <rect x="150" y="190" width="12" height="12"/><rect x="180" y="230" width="12" height="12"/>
    <rect x="345" y="150" width="12" height="12"/><rect x="380" y="200" width="12" height="12"/>
    <rect x="560" y="210" width="12" height="12"/><rect x="660" y="280" width="12" height="12"/>
  </g>
  <circle cx="660" cy="90" r="44" fill="#fbcfe8" opacity="0.9"/>
  <text x="40" y="470" font-family="Segoe UI, Arial, sans-serif" font-size="26" font-weight="600" fill="#fdf4ff" opacity="0.92">City Neon</text>
</svg>
